<svg xmlns="http://www.w3.org/2000/svg" viewBox="0 0 1000 384" width="1000" height="384" role="img" aria-label="Shrey Patel. Systems and inference infrastructure. Work measured from 37 nanoseconds to 61.5 milliseconds.">
<rect width="1000" height="384" rx="16" fill="#F7F3E8"/>
<rect x="0.5" y="0.5" width="999" height="383" rx="15.5" fill="none" stroke="#DCD2BE"/>
<g transform="translate(62,40) scale(0.62)" fill="#9B6B1F"><path d="M 6,3 L 0,3 L 0,27 L 6,27" fill="none" stroke="#9B6B1F" stroke-width="2"/><path d="M 94,3 L 100,3 L 100,27 L 94,27" fill="none" stroke="#9B6B1F" stroke-width="2"/><circle cx="17" cy="15" r="3"/><circle cx="39" cy="15" r="3"/><circle cx="61" cy="15" r="3"/><circle cx="83" cy="15" r="3"/><circle cx="28" cy="6" r="1.2"/><circle cx="28" cy="10.5" r="1.2"/><circle cx="28" cy="15" r="1.2"/><circle cx="28" cy="19.5" r="1.2"/><circle cx="28" cy="24" r="1.2"/><circle cx="50" cy="6" r="1.2"/><circle cx="50" cy="10.5" r="1.2"/><circle cx="50" cy="15" r="1.2"/><circle cx="50" cy="19.5" r="1.2"/><circle cx="50" cy="24" r="1.2"/><circle cx="72" cy="6" r="1.2"/><circle cx="72" cy="10.5" r="1.2"/><circle cx="72" cy="15" r="1.2"/><circle cx="72" cy="19.5" r="1.2"/><circle cx="72" cy="24" r="1.2"/></g>
<text x="62" y="148" font-family="ui-sans-serif,-apple-system,BlinkMacSystemFont,'Segoe UI',Helvetica,Arial,sans-serif" font-size="66" font-weight="700" fill="#1A1611" letter-spacing="-1.8">Shrey Patel</text>
<text x="64" y="190" font-family="ui-sans-serif,-apple-system,BlinkMacSystemFont,'Segoe UI',Helvetica,Arial,sans-serif" font-size="27" font-weight="500" fill="#6C6252">Systems and inference infrastructure.</text>
<text x="64" y="238" font-family="ui-sans-serif,-apple-system,BlinkMacSystemFont,'Segoe UI',Helvetica,Arial,sans-serif" font-size="16" font-weight="700" fill="#94897A" letter-spacing="1.8">TIME PER OPERATION, ACROSS WHAT I BUILD</text>
<line x1="62" y1="326" x2="938" y2="326" stroke="#DCD2BE" stroke-width="2"/>
<line x1="214.6" y1="326" x2="820.1" y2="326" stroke="#9B6B1F" stroke-width="2" opacity="0.45"/>
<line x1="62.0" y1="320" x2="62.0" y2="332" stroke="#DCD2BE" stroke-width="2"/>
<text x="62.0" y="356" font-family="ui-monospace,SFMono-Regular,'SF Mono',Menlo,Consolas,monospace" font-size="17" font-weight="500" fill="#94897A">1 ns</text>
<line x1="354.0" y1="320" x2="354.0" y2="332" stroke="#DCD2BE" stroke-width="2"/>
<text x="354.0" y="356" font-family="ui-monospace,SFMono-Regular,'SF Mono',Menlo,Consolas,monospace" font-size="17" font-weight="500" fill="#94897A" text-anchor="middle">1 µs</text>
<line x1="646.0" y1="320" x2="646.0" y2="332" stroke="#DCD2BE" stroke-width="2"/>
<text x="646.0" y="356" font-family="ui-monospace,SFMono-Regular,'SF Mono',Menlo,Consolas,monospace" font-size="17" font-weight="500" fill="#94897A" text-anchor="middle">1 ms</text>
<line x1="938.0" y1="320" x2="938.0" y2="332" stroke="#DCD2BE" stroke-width="2"/>
<text x="938.0" y="356" font-family="ui-monospace,SFMono-Regular,'SF Mono',Menlo,Consolas,monospace" font-size="17" font-weight="500" fill="#94897A" text-anchor="end">1 s</text>
<line x1="214.6" y1="304" x2="214.6" y2="326" stroke="#9B6B1F" stroke-width="2"/>
<circle cx="214.6" cy="326" r="7" fill="#9B6B1F"/>
<circle cx="214.6" cy="326" r="3" fill="#F7F3E8"/>
<text x="214.6" y="294" font-family="ui-monospace,SFMono-Regular,'SF Mono',Menlo,Consolas,monospace" font-size="23" font-weight="700" fill="#1A1611" text-anchor="middle">37 ns</text>
<text x="214.6" y="272" font-family="ui-sans-serif,-apple-system,BlinkMacSystemFont,'Segoe UI',Helvetica,Arial,sans-serif" font-size="16" font-weight="500" fill="#6C6252" text-anchor="middle">pre-trade risk gate</text>
<line x1="820.1" y1="304" x2="820.1" y2="326" stroke="#9B6B1F" stroke-width="2"/>
<circle cx="820.1" cy="326" r="7" fill="#9B6B1F"/>
<circle cx="820.1" cy="326" r="3" fill="#F7F3E8"/>
<text x="820.1" y="294" font-family="ui-monospace,SFMono-Regular,'SF Mono',Menlo,Consolas,monospace" font-size="23" font-weight="700" fill="#1A1611" text-anchor="middle">61.5 ms</text>
<text x="820.1" y="272" font-family="ui-sans-serif,-apple-system,BlinkMacSystemFont,'Segoe UI',Helvetica,Arial,sans-serif" font-size="16" font-weight="500" fill="#6C6252" text-anchor="middle">TTFT p99 under load</text>
</svg>